<?xml version="1.0" encoding="utf-8"?><svg version="1.1" xmlns="http://www.w3.org/2000/svg" x="0px" y="0px" width="300px" height="120.6px">
<path fill="#ffffff" stroke="#3256A4" d="M225.2,108.11c-2.77,0-3.97,2.72-3.97,6.15c0,3.42,1.17,6.12,3.94,6.12c2.75,0,3.96-2.72,3.96-6.15
	C229.12,110.81,227.95,108.11,225.2,108.11z M225.2,118.26c-1.28,0-1.8-1.49-1.8-4.03s0.49-3.99,1.77-3.99
	c1.26,0,1.79,1.49,1.79,4.03C226.95,116.8,226.45,118.26,225.2,118.26z M213.62,108.3h1.94v11.9h-2.04l-2.19-5.3
	c-0.31-0.75-0.68-1.72-0.9-2.41c0.01,0.73,0.03,1.96,0.03,2.7v5.01h-1.94v-11.9h2.14l2.09,5.22c0.29,0.71,0.71,1.82,0.94,2.48
	c-0.01-0.73-0.07-2.02-0.07-2.77V108.3z M194.88,108.3H197v11.9h-2.13V108.3z M230.89,108.3h6.27v2.06h-4.15v2.63h2.79v2.06h-2.79
	v5.15h-2.13V108.3z M202.83,108.11c-2.77,0-3.97,2.72-3.97,6.15c0,3.42,1.17,6.12,3.94,6.12c2.75,0,3.96-2.72,3.96-6.15
	C206.76,110.81,205.59,108.11,202.83,108.11z M202.83,118.26c-1.27,0-1.8-1.49-1.8-4.03s0.49-3.99,1.77-3.99
	c1.26,0,1.79,1.49,1.79,4.03C204.58,116.8,204.09,118.26,202.83,118.26z M275.8,15.25h-11.86l-18.68,76.04l-18.58-76.04h-11.86
	l-19.81,80.61v1.57h-0.39l0,0h12.21l4.7-21.72h17.84l4.81,21.72h9.55h3.01h9.2l4.7-21.72h17.84l4.81,21.72h12.56L275.8,15.25z
	 M213.89,64.8l3.05-13.85c1.18-5.52,2.94-14.91,3.52-17.97c0.59,3.05,2.35,12.56,3.52,17.97l3.05,13.85H213.89z M263,64.8
	l3.05-13.85c1.18-5.52,2.94-14.91,3.52-17.97c0.59,3.05,2.35,12.56,3.52,17.97l3.05,13.85H263z M279.41,108.3h2.13v11.9h-2.13V108.3
	z M288.82,116.56l1.83,0.78c-0.56,1.96-1.6,3.04-3.42,3.04c-2.63,0-3.86-2.7-3.86-6.12c0-3.43,1.26-6.15,3.89-6.15
	c2.02,0,2.91,1.29,3.36,3.01l-1.99,0.64c-0.3-1.09-0.63-1.53-1.41-1.53c-1.14,0-1.68,1.46-1.68,3.99s0.56,4.03,1.72,4.03
	C288.01,118.26,288.38,117.85,288.82,116.56z M245.06,108.3l-3.04,11.9h2.18l0.56-2.48h2.67l0.56,2.48h2.19l-3.04-11.9H245.06z
	 M245.22,115.73l0.32-1.44c0.22-0.97,0.46-2.24,0.54-2.86c0.09,0.6,0.36,1.97,0.56,2.89l0.32,1.41H245.22z M296.71,108.3h-2.07
	l-3.04,11.9h2.17l0.56-2.48H297l0.56,2.48h2.19L296.71,108.3z M294.79,115.73l0.32-1.44c0.22-0.97,0.46-2.24,0.54-2.86
	c0.09,0.6,0.36,1.97,0.56,2.89l0.32,1.41H294.79z M195.01,95.86l-0.39,1.57H182.7V64.71c0-5.11,0.13-16.94,0.26-20.07
	c-1.02,3.25-4.87,15.09-6.93,21l-11.56,32.17l-11.53-32.17c-2.05-5.92-5.9-17.75-6.93-21c0.13,3.14,0.26,14.97,0.26,20.07v32.72
	h-11.8V16.21h13.21l11.55,33.77c1.67,4.87,4.74,14.85,5.52,17.75c0.89-3.02,3.97-13.34,5.64-18.1l11.55-33.42h13.09V95.86z
	 M277.62,112c0-2.46-1.48-3.7-3.79-3.7h-3.16v11.9h2.12v-4.52h0.7l1.85,4.52h2.31l-2.04-4.95
	C276.77,114.71,277.62,113.67,277.62,112z M273.85,113.69h-1.05v-3.32h0.94c1.28,0,1.77,0.6,1.77,1.67
	C275.5,113.13,274.94,113.69,273.85,113.69z M258.3,108.3h2.11v11.9h-1.94v-3.84c0-1.41,0.02-2.72,0.03-3.6
	c-0.24,0.85-0.63,2.17-1.07,3.53l-1.38,4.22l-1.38-4.22c-0.43-1.34-0.83-2.68-1.07-3.53c0.02,0.88,0.04,2.19,0.04,3.6v3.84h-1.9
	v-11.9h2.14l1.41,4.4c0.35,1.11,0.7,2.13,0.8,2.68c0.12-0.6,0.46-1.63,0.8-2.68L258.3,108.3z M264.72,118.16h4.13v2.04h-6.26v-11.9
	h6.1v2.04h-3.97v2.51h2.67v2.01h-2.67V118.16z M59.62,108.3h2.13v11.9h-2.13v-5.13H56.9v5.13h-2.13v-11.9h2.13v4.69h2.72V108.3z
	 M85.28,108.3l-3.04,11.9h2.17l0.56-2.48h2.67l0.56,2.48h2.19l-3.04-11.9H85.28z M85.43,115.73l0.32-1.44
	c0.22-0.97,0.46-2.24,0.54-2.86c0.09,0.6,0.36,1.97,0.56,2.89l0.32,1.41H85.43z M186.23,108.3h7.05v2.04h-2.47v9.86h-2.12v-9.86
	h-2.47V108.3z M98.79,108.3h2.13v11.9h-2.13V108.3z M99.31,90.73c0-0.54-0.26-1.09-0.71-1.39c-0.43-0.27-0.94-0.28-1.43-0.28h-2.35
	v5.58h1.3v-2.21h0.95l0.85,2.21h1.45l-1.04-2.47C98.95,91.95,99.31,91.36,99.31,90.73z M97.64,91.36c-0.24,0.14-0.53,0.11-0.8,0.11
	h-0.72v-1.42h0.68c0.24,0,0.62-0.03,0.84,0.11c0.18,0.11,0.31,0.34,0.31,0.56C97.96,90.96,97.85,91.22,97.64,91.36z M78.57,108.3
	h2.11v11.9h-1.94v-3.84c0-1.41,0.02-2.72,0.03-3.6c-0.24,0.85-0.63,2.17-1.07,3.53l-1.38,4.22l-1.38-4.22
	c-0.43-1.34-0.83-2.68-1.07-3.53c0.02,0.88,0.04,2.19,0.04,3.6v3.84h-1.9v-11.9h2.14l1.41,4.4c0.36,1.11,0.7,2.13,0.8,2.68
	c0.12-0.6,0.46-1.63,0.79-2.68L78.57,108.3z M97.1,86.83c-2.76,0-5.01,2.25-5.01,5.01c0,2.76,2.25,5,5.01,5c2.76,0,5.01-2.25,5.01-5
	C102.11,89.08,99.86,86.83,97.1,86.83z M97.1,96.15c-2.38,0-4.31-1.94-4.31-4.31c0-2.38,1.93-4.32,4.31-4.32
	c2.38,0,4.32,1.94,4.32,4.32C101.41,94.22,99.48,96.15,97.1,96.15z M41.35,108.3l-3.04,11.9h2.17l0.56-2.48h2.67l0.56,2.48h2.19
	l-3.04-11.9H41.35z M41.5,115.73l0.32-1.44c0.22-0.97,0.46-2.24,0.54-2.86c0.09,0.6,0.36,1.97,0.56,2.89l0.32,1.41H41.5z
	 M34.64,108.3h2.11v11.9h-1.94v-3.84c0-1.41,0.02-2.72,0.03-3.6c-0.24,0.85-0.63,2.17-1.07,3.53l-1.38,4.22l-1.38-4.22
	c-0.43-1.34-0.83-2.68-1.07-3.53c0.02,0.88,0.04,2.19,0.04,3.6v3.84h-1.9v-11.9h2.14l1.41,4.4c0.36,1.11,0.7,2.13,0.8,2.68
	c0.12-0.6,0.46-1.63,0.8-2.68L34.64,108.3z M46.21,108.3h7.05v2.04H50.8v9.86h-2.13v-9.86h-2.46V108.3z M66.06,118.16h4.13v2.04
	h-6.25v-11.9h6.1v2.04h-3.98v2.51h2.67v2.01h-2.67V118.16z M90.14,108.3h7.05v2.04h-2.46v9.86H92.6v-9.86h-2.46V108.3z
	 M108.2,116.56l1.84,0.78c-0.56,1.96-1.6,3.04-3.42,3.04c-2.63,0-3.86-2.7-3.86-6.12c0-3.43,1.26-6.15,3.89-6.15
	c2.02,0,2.91,1.29,3.36,3.01l-1.99,0.64c-0.31-1.09-0.63-1.53-1.41-1.53c-1.14,0-1.68,1.46-1.68,3.99s0.56,4.03,1.72,4.03
	C107.39,118.26,107.76,117.85,108.2,116.56z M160.29,108.11c-2.77,0-3.97,2.72-3.97,6.15c0,3.42,1.17,6.12,3.94,6.12
	c2.75,0,3.96-2.72,3.96-6.15C164.22,110.81,163.05,108.11,160.29,108.11z M160.29,118.26c-1.28,0-1.8-1.49-1.8-4.03
	s0.49-3.99,1.77-3.99c1.26,0,1.79,1.49,1.79,4.03C162.05,116.8,161.55,118.26,160.29,118.26z M171,116.56l1.84,0.78
	c-0.56,1.96-1.6,3.04-3.42,3.04c-2.63,0-3.86-2.7-3.86-6.12c0-3.43,1.26-6.15,3.89-6.15c2.02,0,2.91,1.29,3.36,3.01l-1.99,0.64
	c-0.3-1.09-0.62-1.53-1.41-1.53c-1.14,0-1.68,1.46-1.68,3.99s0.56,4.03,1.72,4.03C170.19,118.26,170.56,117.85,171,116.56z
	 M174.55,108.3h2.13v11.9h-2.13V108.3z M181.37,108.3l-3.04,11.9h2.18l0.56-2.48h2.67l0.56,2.48h2.19l-3.04-11.9H181.37z
	 M181.52,115.73l0.32-1.44c0.22-0.97,0.46-2.24,0.54-2.86c0.09,0.6,0.36,1.97,0.56,2.89l0.32,1.41H181.52z M155.23,116.99
	c0,1.97-1.36,3.4-3.57,3.4c-1.62,0-2.74-0.85-3.55-1.87l1.45-1.55c0.71,0.92,1.48,1.36,2.19,1.36c0.88,0,1.32-0.49,1.32-1.29
	c0-0.68-0.42-1.22-1.82-1.94c-1.77-0.92-2.84-1.82-2.84-3.79c0-1.78,1.33-3.19,3.33-3.19c1.48,0,2.4,0.6,3.25,1.7l-1.41,1.41
	c-0.7-0.78-1.07-1.05-1.89-1.05c-0.68,0-1.12,0.44-1.12,1.04c0,0.71,0.41,1.15,1.7,1.85C154.33,114.16,155.23,114.98,155.23,116.99z
	 M122.82,118.12h3.72v2.07h-5.85v-11.9h2.13V118.12z M114.02,108.3l-3.04,11.9h2.17l0.56-2.48h2.67l0.56,2.48h2.19l-3.04-11.9
	H114.02z M114.17,115.73l0.32-1.44c0.22-0.97,0.46-2.24,0.54-2.86c0.09,0.6,0.36,1.97,0.56,2.89l0.32,1.41H114.17z M147.43,116.99
	c0,1.97-1.36,3.4-3.57,3.4c-1.62,0-2.74-0.85-3.55-1.87l1.45-1.55c0.71,0.92,1.48,1.36,2.19,1.36c0.88,0,1.32-0.49,1.32-1.29
	c0-0.68-0.42-1.22-1.82-1.94c-1.77-0.92-2.84-1.82-2.84-3.79c0-1.78,1.33-3.19,3.33-3.19c1.48,0,2.4,0.6,3.25,1.7l-1.41,1.41
	c-0.7-0.78-1.07-1.05-1.89-1.05c-0.68,0-1.12,0.44-1.12,1.04c0,0.71,0.41,1.15,1.7,1.85C146.53,114.16,147.43,114.98,147.43,116.99z
	 M134.51,108.3l-3.04,11.9h2.18l0.56-2.48h2.67l0.56,2.48h2.19l-3.04-11.9H134.51z M134.67,115.73l0.32-1.44
	c0.22-0.97,0.46-2.24,0.54-2.86c0.09,0.6,0.36,1.97,0.56,2.89l0.32,1.41H134.67z M84.02,0.1H28.08L0.25,48.75L28.09,97.4h56.18
	l27.59-48.9L84.02,0.1z M75.93,22.81l1.22,0.93l-3.37,2.47l0.01-1.68L75.93,22.81z M73.79,23.57l0.01-2.38l1.52,1.16L73.79,23.57z
	 M77.77,24.2l1.4,1.06l-5.4,4.07l0.01-2.21L77.77,24.2z M79.78,25.73l1.14,0.87l-7.17,5.29l0.01-1.62L79.78,25.73z M81.54,27.07
	l1.32,1l-9.11,6.81l0.01-2.07L81.54,27.07z M83.48,28.54l1.17,0.89L73.74,37.8l0.01-1.99L83.48,28.54z M85.26,29.89l1.1,0.83
	l-12.63,9.83l0.01-1.82L85.26,29.89z M86.97,31.19l1.3,0.99L73.72,43.41l0.01-1.91L86.97,31.19z M73.75,44.31l15.12-11.67l1.27,0.96
	L73.71,46.4l0.01-2.14L73.75,44.31z M90.75,34.06l1.17,0.89l-18.23,14l0.01-1.61L90.75,34.06z M92.54,35.42l1.27,0.96L73.69,52.04
	l0.01-2.16L92.54,35.42z M94.41,36.84l1.24,0.94L73.68,54.75l0.01-1.76L94.41,36.84z M96.26,38.24l1.16,0.88L73.67,57.67l0.01-1.99
	L96.26,38.24z M98.04,39.59l1.22,0.92l-25.6,19.8l0.01-1.71L98.04,39.59z M99.86,40.98l1.2,0.91L73.64,63.27l0.01-2.01L99.86,40.98z
	 M101.67,42.35l1.32,1.01L73.63,66.23l0.01-2.02L101.67,42.35z M103.6,43.82l1.26,0.96L73.62,68.82l0.01-1.65l0,0L103.6,43.82z
	 M105.48,45.24l1.12,0.85L73.61,71.59l0.01-1.84L105.48,45.24z M107.21,46.55l1.28,0.97L73.6,74.67l0.01-2.15L107.21,46.55z
	 M108.48,45.61l-2.13-1.65l0.63-0.95L108.48,45.61z M106.57,42.29l-0.8,1.22l-1.14-0.88l1.15-1.71L106.57,42.29z M105.37,40.2
	l-1.32,1.96l-1.38-1.07l1.67-2.7L105.37,40.2z M103.91,37.67l-1.84,2.97l-1.2-0.93l2.18-3.52L103.91,37.67z M102.71,35.58
	l-0.11-0.07l-2.31,3.74l-1.3-1.01l2.74-4.36L102.71,35.58z M101.34,33.19l-0.03-0.02l-2.9,4.61l-1.13-0.88l3.22-5.18L101.34,33.19z
	 M100.13,31.08l-0.07-0.04l-3.37,5.41l-1.58-1.23l0.45,0.27l3.58-6.12L100.13,31.08z M98.72,28.63l-3.78,6.46l-1.35-1.05l4.3-6.84
	L98.72,28.63z M97.48,26.47L93,33.59l-1.02-0.8l4.6-7.87L97.48,26.47z M96.31,24.44l-0.23-0.13l-4.69,8.02l-1.25-0.97l5.12-8.74
	L96.31,24.44z M94.84,21.89l-5.29,9.02l-1.36-1.06l5.78-9.47L94.84,21.89z M93.55,19.65l-5.95,9.74l-1.19-0.93l6.29-10.3
	L93.55,19.65z M92.28,17.43l-6.46,10.57l-1.25-0.97l6.81-11.16L92.28,17.43z M90.97,15.15l-6.98,11.43l-1.24-0.96l7.33-12
	L90.97,15.15z M89.66,12.89l-7.5,12.28l-1.21-0.94l7.84-12.84L89.66,12.89z M88.38,10.65l-8.01,13.12l-1.28-1l8.38-13.72
	L88.38,10.65z M87.04,8.33L78.5,22.32l-1.21-0.94l8.89-14.56L87.04,8.33z M85.75,6.09L76.7,20.92l-1.11-0.86l9.3-15.47L85.75,6.09z
	 M84.47,3.86L75,19.6l-1.18-0.92l9.76-16.38L84.47,3.86z M29.35,2.32L71.16,19L22.75,47.37L29.35,2.32z M26.85,79.21l-0.27-1.95
	l24.89-10.73l2.32,1.35L26.85,79.21z M54.58,68.34l2.14,1.25L27.23,81.92l-0.27-1.96L54.58,68.34z M26.48,76.5l-0.29-2.12
	l22.25-9.62l2.24,1.31L26.48,76.5z M26.08,73.62l-0.29-2.08l19.76-8.46l2.1,1.22L26.08,73.62z M25.69,70.77l-0.31-2.27l17.05-7.26
	l2.33,1.36L25.69,70.77z M25.27,67.75l-0.28-1.99l14.69-6.11l1.95,1.14L25.27,67.75z M24.89,65l-0.29-2.12l12.03-5.01l2.26,1.32
	L24.89,65z M24.49,62.11l-0.28-2.05l9.34-4l2.27,1.33L24.49,62.11z M24.1,59.31l-0.3-2.16l6.63-2.9l2.32,1.35L24.1,59.31z
	 M23.7,56.39l-0.27-1.95l4.12-1.87l2.09,1.22L23.7,56.39z M23.33,53.68l-0.3-2.16l1.61-0.65l2.13,1.24L23.33,53.68z M22.92,50.77
	l-0.13-0.97l1.04,0.61L22.92,50.77z M27.62,3.89l-6.47,44.12H2.38L27.62,3.89z M2.38,49.49h0.79l0.24,1.8L2.38,49.49z M4.38,52.98
	l-0.46-3.49h1.93l1.04,7.87L4.38,52.98z M7.86,59.06L6.6,49.49h1.95l1.85,13.99L7.86,59.06z M11.36,65.18L9.29,49.49h1.9l2.64,20
	L11.36,65.18z M14.8,71.19l-2.86-21.69h1.86l3.42,25.92L14.8,71.19z M18.18,77.11l-3.64-27.61h1.9l4.21,31.93L18.18,77.11z
	 M21.62,83.11l-4.43-33.62h1.9l5,37.94L21.62,83.11z M25.06,89.13l-5.22-39.64h1.41l6.01,43.48L25.06,89.13z M27.33,82.68
	l30.19-12.62l2.07,1.21l-31.98,13.4L27.33,82.68z M28.03,87.75l-0.32-2.33l32.67-13.69l2.42,1.41L28.03,87.75z M28.14,88.51
	L63.6,73.6l2.15,1.25L28.41,90.5L28.14,88.51z M28.52,91.26l38.02-15.94l2.06,1.2L28.79,93.23L28.52,91.26z M29.05,95.12l-0.16-1.14
	l40.5-17.01l1.78,1.04L29.05,95.12z M72.11,76.85L23.63,48.57l1.24-0.72l47.25,27.23L72.11,76.85z M72.12,74.22L25.6,47.41
	l1.31-0.77l45.21,26.19L72.12,74.22z M72.13,71.97L27.65,46.21l1.57-0.92l42.91,24.86L72.13,71.97z M72.14,69.29L29.96,44.86
	l1.34-0.79l40.84,23.32L72.14,69.29z M72.15,66.54l-40.11-22.9l1.49-0.87l38.63,22.44L72.15,66.54z M72.16,64.36L34.26,42.34
	l1.38-0.81l36.52,20.98L72.16,64.36z M72.17,61.66L36.38,41.1l1.35-0.79l34.45,19.51L72.17,61.66z M72.18,58.98l-33.72-19.1
	l1.78-1.04l31.94,18.53L72.18,58.98z M72.19,56.51L40.98,38.4l1.49-0.87l29.73,17.08L72.19,56.51z M72.2,53.76L43.2,37.1l1.57-0.92
	l27.43,15.8L72.2,53.76z M72.21,51.13l-26.7-15.38l1.3-0.76l25.41,14.55L72.21,51.13z M72.22,48.69L47.54,34.56l1.39-0.81
	l23.29,13.29L72.22,48.69z M72.23,46.19L49.67,33.31l1.86-1.09l20.71,12.35L72.23,46.19z M72.23,43.72L52.25,31.8l1.59-0.93
	l18.4,10.77L72.23,43.72z M72.25,40.79L54.57,30.44l1.18-0.69l16.5,9.49L72.25,40.79z M72.25,38.39l-15.77-9.07l1.48-0.87
	l14.29,8.18L72.25,38.39z M72.26,35.78L58.7,28.02l1.57-0.92l11.94,6.94l0.05-0.09L72.26,35.78z M72.27,33.21l-11.26-6.55l1.3-0.76
	l9.97,5.57L72.27,33.21z M72.28,30.63l-9.23-5.16l1.86-1.09l7.38,4.53L72.28,30.63z M72.29,28.04l-6.66-4.09l1.35-0.79l5.32,3.11
	L72.29,28.04z M72.3,25.43l-4.6-2.69l1.34-0.79c1.26,0.74,2.75,1.62,3.26,1.96L72.3,25.43z M72.31,23.04
	c-0.51-0.32-1.32-0.8-2.53-1.51l2.55-1.49L72.31,23.04z M31.5,1.58h50.78l-9.75,16.36L31.5,1.58z M73.6,75.61l35.5-27.62l0.68,0.52
	L73.59,76.62L73.6,75.61z M83.82,95.18l-10-16.86l1.58-1.22L85.05,93L83.82,95.18z M85.47,92.26l-9.49-15.62l1.55-1.2l9.1,14.76
	L85.47,92.26z M87.04,89.47l-8.93-14.48l1.54-1.19l8.48,13.75L87.04,89.47z M88.55,86.8l-8.31-13.47l1.54-1.2l7.89,12.68L88.55,86.8
	z M90.08,84.08l-7.71-12.4l1.82-1.42l7.15,11.59L90.08,84.08z M91.76,81.11l-6.97-11.31l1.61-1.25l6.5,10.55L91.76,81.11z
	 M93.3,78.37L86.98,68.1l1.78-1.39l5.81,9.41L93.3,78.37z M94.98,75.39l-5.64-9.13l1.58-1.23l5.19,8.35L94.98,75.39z M96.53,72.65
	l-5.01-8.07l1.86-1.45l4.37,7.36L96.53,72.65z M98.17,69.74l-4.2-7.07l1.43-1.11l3.78,6.39L98.17,69.74z M99.6,67.21l-3.61-6.11
	l1.71-1.33l3.17,5.18L99.6,67.21z M101.29,64.21l-3-4.9l1.56-1.21l2.57,4.1L101.29,64.21z M102.84,61.47l-2.39-3.82l1.69-1.31
	l1.94,2.95L102.84,61.47z M104.47,58.56l-1.76-2.68l1.66-1.29l1.28,1.88L104.47,58.56z M106.06,55.76l-1.1-1.62l1.62-1.26l0.63,0.83
	L106.06,55.76z M107.61,53.01l-0.45-0.59l1.38-1.07L107.61,53.01z"/>
</svg>
